<svg xmlns="http://www.w3.org/2000/svg" viewBox="0 0 1200 675" width="1200" height="675" role="img">
  <defs>
    <linearGradient id="bg" gradientTransform="rotate(160)">
      <stop offset="0%" stop-color="#fce7f3"/>
      <stop offset="100%" stop-color="#fbcfe8"/>
    </linearGradient>
    <pattern id="dots" width="34" height="34" patternUnits="userSpaceOnUse">
      <circle cx="2" cy="2" r="1.6" fill="#9d174d" opacity="0.10"/>
    </pattern>
  </defs>

  <rect width="1200" height="675" fill="url(#bg)"/>
  <rect width="1200" height="675" fill="url(#dots)"/>

  <circle cx="600" cy="337" r="190" fill="#ffffff" opacity="0.42"/>

  <g transform="translate(516 253) scale(7)"
     fill="none" stroke="#9d174d" stroke-width="1.5"
     stroke-linecap="round" stroke-linejoin="round" opacity="0.85">
    <path d="M3 14v-3a9 9 0 0 1 18 0v3 M3 14a3 3 0 0 0 3 3h1v-6H6a3 3 0 0 0-3 3Z M21 14a3 3 0 0 1-3 3h-1v-6h1a3 3 0 0 1 3 3Z"/>
  </g>
</svg>
